<?xml version="1.0" encoding="UTF-8"?>
<svg xmlns="http://www.w3.org/2000/svg" id="a" width="865.76" height="682.89" viewBox="0 0 865.76 682.89">
  <g>
    <g>
      <path d="M188.82,102.99c-18.66,0-39.32-2.97-58.37-12.26-2.17,1.01-19.61,8.75-41.71,8.76-14.05,0-29.97-3.13-45.06-13.11l-.22-.15V38.18H341.81v49.34l-.16,.15c-.32,.29-32.72,28.77-93.2,6.04-2.38,.81-28.12,9.28-59.63,9.28Zm-58.36-13.37l.22,.11c52.21,25.61,116.97,3.21,117.61,2.98l.17-.06,.17,.06c57.81,21.79,89.63-3.49,92.18-5.64V39.18H44.45v46.52c39.73,26.08,85.32,4.26,85.78,4.04l.22-.11Z" fill="#002346"></path>
      <path d="M188.82,111.99c-18.66,0-39.32-2.97-58.37-12.26-2.17,1.01-19.61,8.75-41.71,8.76-14.05,0-29.97-3.13-45.06-13.11l-.22-.15v-9.27h1v8.73c39.73,26.08,85.32,4.26,85.78,4.04l.22-.11,.22,.11c52.21,25.61,116.97,3.21,117.61,2.98l.17-.06,.17,.06c57.81,21.79,89.63-3.49,92.18-5.64v-8.77h1v9.22l-.16,.15c-.32,.29-32.72,28.77-93.2,6.04-2.38,.81-28.12,9.28-59.63,9.28Z" fill="#002346"></path>
      <path d="M188.82,123.99c-18.66,0-39.32-2.97-58.37-12.26-2.17,1.01-19.61,8.75-41.71,8.76-14.05,0-29.97-3.13-45.06-13.11l-.22-.15v-12.27h1v11.73c39.73,26.08,85.32,4.26,85.78,4.04l.22-.11,.22,.11c52.21,25.61,116.97,3.21,117.61,2.98l.17-.06,.17,.06c57.81,21.79,89.63-3.49,92.18-5.64v-11.77h1v12.22l-.16,.15c-.32,.29-32.72,28.77-93.2,6.04-2.38,.81-28.12,9.28-59.63,9.28Z" fill="#002346"></path>
      <polygon points="327.17 474.68 56.3 474.68 56.3 113.41 57.3 113.41 57.3 473.68 326.17 473.68 326.17 116.8 327.17 116.8 327.17 474.68" fill="#002346"></polygon>
      <polygon points="302.31 437.68 81.16 437.68 81.16 119.79 82.16 119.79 82.16 436.68 301.31 436.68 301.31 122.71 302.31 122.71 302.31 437.68" fill="#002346"></polygon>
      <rect x="81.66" y="139.75" width="220.15" height="1" fill="#002346"></rect>
      <rect x="81.66" y="238.75" width="220.15" height="1" fill="#002346"></rect>
      <rect x="82.66" y="337.75" width="220.15" height="1" fill="#002346"></rect>
      <rect x="154.26" y="119.79" width="1" height="317.39" fill="#002346"></rect>
      <rect x="231.88" y="119.79" width="1" height="317.39" fill="#002346"></rect>
      <rect x="46.94" y="455.18" width="44.58" height="1" transform="translate(-347.47 258.71) rotate(-56.06)" fill="#002346"></rect>
      <rect x="313.74" y="433.4" width="1" height="44.57" transform="translate(-200.72 252.67) rotate(-33.89)" fill="#002346"></rect>
    </g>
    <g>
      <g>
        <path d="M160.32,383.46s17.41-14.65,37.18-.39c0,0,12.41,9.65,4.14,17.93,0,0-8.74,5.98-21.61-4.14,0,0-13.68-11.17-19.71-13.4Z" fill="#7cd295"></path>
        <path d="M194.66,403.18c-3.83,0-8.96-1.28-14.91-5.95-.14-.12-13.7-11.15-19.59-13.33l-.75-.28,.61-.51c.18-.15,17.92-14.71,37.75-.41,.29,.22,6.78,5.34,7.16,11.46,.16,2.63-.83,5.04-2.96,7.17-.08,.06-2.79,1.85-7.32,1.85Zm-33.41-19.84c6.32,2.78,18.54,12.72,19.08,13.16,12.45,9.79,20.97,4.17,21.05,4.11,1.87-1.88,2.77-4.05,2.63-6.4-.35-5.7-6.72-10.73-6.79-10.78-17.16-12.37-32.7-2.47-35.97-.1Z" fill="#002346"></path>
      </g>
      <g>
        <path d="M141.07,376.3s19.2-26.8,7.7-53c0,0-12.87-25.75,2.3-33.56,0,0,18.85-7.82,28.96,19.77,0,0,13.56,40.26-38.97,66.8Z" fill="#7cd295"></path>
        <path d="M139.6,377.57l1.1-1.54c.19-.27,18.91-26.89,7.65-52.55-.12-.24-12.89-26.23,2.51-34.16,.3-.13,6.67-2.7,14.09,.56,6.63,2.9,11.85,9.45,15.52,19.47,.04,.11,3.4,10.36,.23,23.71-2.92,12.31-12.13,29.87-39.42,43.65l-1.69,.85Zm17.58-88.38c-3.49,0-5.89,.97-5.92,.98-14.55,7.5-2.19,32.67-2.06,32.93,9.94,22.66-2.99,45.97-6.77,51.99,25.74-13.48,34.54-30.33,37.36-42.19,3.12-13.11-.16-23.14-.19-23.24-3.58-9.75-8.63-16.12-15.02-18.92-2.69-1.18-5.26-1.55-7.41-1.55Z" fill="#002346"></path>
      </g>
      <g>
        <path d="M92.27,299.07c-4.77,2.35-7.9,7.18-7.82,12.5,.1,6.64,4.17,15.78,23.4,20.92,0,0,22.56,5.59,25.07,22.33,0,0,6.22-20.75-4.39-40.57-4.07-7.59-10.83-13.46-19.07-15.96-5.18-1.57-11.35-2.11-17.19,.77Z" fill="#7cd295"></path>
        <path d="M132.78,356.95l-.31-2.05c-2.44-16.24-24.5-21.9-24.72-21.95-19.45-5.21-23.65-14.49-23.75-21.37-.08-5.39,3.09-10.46,8.08-12.92h0c5.1-2.51,11-2.78,17.53-.8,8.22,2.49,15.09,8.24,19.35,16.19,10.58,19.76,4.49,40.71,4.42,40.92l-.6,1.98Zm-31.42-59.47c-3.19,0-6.15,.67-8.87,2.01h0c-4.67,2.3-7.63,7.04-7.56,12.07,.1,6.56,4.17,15.43,23.06,20.48,.21,.05,21.02,5.38,24.99,20.66,1.21-5.64,3.67-22.33-4.84-38.22-4.14-7.73-10.81-13.32-18.8-15.74-2.79-.85-5.45-1.27-7.98-1.27Z" fill="#002346"></path>
      </g>
      <g>
        <path d="M91.2,368.01c1.16,2.21,3.3,4.66,7,7.25,0,0,14.52,8.42,18.29,20.3,0,0-.36-19.38-11.4-34.09,0,0-.96-1.81-2.93-3.23-6.5-4.68-14.69,2.68-10.97,9.77Z" fill="#7cd295"></path>
        <path d="M117.02,398.73l-.97-3.04c-3.68-11.57-17.94-19.96-18.08-20.04-3.44-2.41-5.85-4.9-7.18-7.43h0c-2.08-3.96-.57-7.85,1.84-9.94,2.86-2.49,6.71-2.65,9.81-.42,2.03,1.46,3.02,3.31,3.06,3.39,10.96,14.6,11.45,34.1,11.45,34.3l.06,3.19Zm-19.19-41.51c-1.83,0-3.46,.78-4.59,1.75-1.98,1.72-3.6,5.06-1.63,8.81h0c1.26,2.4,3.56,4.78,6.85,7.08,.52,.3,12.48,7.33,17.35,17.7-.59-5.98-2.83-19.81-11.09-30.84-.05-.08-.98-1.8-2.83-3.13-1.38-.99-2.77-1.38-4.07-1.38Z" fill="#002346"></path>
      </g>
      <g>
        <polygon points="108.78 413.88 111.22 461.92 151.99 461.92 154.75 414.34 108.78 413.88" fill="#fff"></polygon>
        <path d="M151.99,462.39h-40.77c-.25,0-.45-.19-.46-.44l-2.44-48.04c0-.13,.04-.25,.13-.34,.09-.09,.2-.15,.34-.14l45.98,.46c.13,0,.25,.05,.33,.15,.09,.09,.13,.22,.12,.34l-2.76,47.59c-.01,.25-.22,.44-.46,.44Zm-40.33-.93h39.89l2.71-46.66-45-.45,2.4,47.11Z" fill="#002346"></path>
      </g>
      <path d="M140.5,414.11s-.02,0-.04,0c-.26-.02-.45-.24-.43-.5,.01-.19,1.59-19.16,14.63-27.99,7.73-5.23,17.85-5.93,30.1-2.08,.24,.08,.38,.34,.3,.58s-.33,.38-.58,.3c-11.96-3.76-21.82-3.1-29.3,1.96-12.67,8.58-14.22,27.11-14.23,27.29-.02,.24-.22,.43-.46,.43Z" fill="#002346"></path>
      <path d="M133.42,413.79c-.2,0-.39-.13-.45-.34-7.23-25.83,10.27-40.8,13.85-43.54,1.07-.82,2.32-1.79,3.53-2.83,31.77-27.34,13.39-57.95,13.2-58.25-.13-.22-.07-.5,.15-.64,.22-.14,.5-.07,.64,.15,.19,.31,18.99,31.58-13.38,59.44-1.22,1.05-2.49,2.04-3.57,2.86-3.5,2.67-20.58,17.3-13.52,42.55,.07,.25-.08,.5-.32,.57-.04,.01-.08,.02-.13,.02Z" fill="#002346"></path>
      <path d="M130.11,414.13c-.16,0-.31-.08-.39-.22-11.24-18.11-2.86-41.17-.02-47.81,.71-1.67,1.22-3.07,1.59-4.39,7.89-28.42-16.09-45.67-16.34-45.84-.21-.15-.26-.44-.11-.65,.15-.21,.44-.26,.65-.11,.25,.17,24.77,17.78,16.7,46.85-.38,1.37-.9,2.8-1.63,4.51-2.79,6.53-11.04,29.23-.04,46.96,.14,.22,.07,.5-.15,.64-.08,.05-.16,.07-.24,.07Z" fill="#002346"></path>
      <path d="M118.3,413.84s-.01,0-.02,0c-.26-.01-.46-.23-.44-.48,1.22-30.19-16.49-42.2-16.67-42.32-.21-.14-.27-.43-.13-.64,.14-.21,.43-.27,.64-.13,.18,.12,18.33,12.39,17.08,43.13-.01,.25-.22,.45-.46,.45Z" fill="#002346"></path>
    </g>
  </g>
  <g>
    <g>
      <path d="M313.74,516.36h44.27c4.18,0,7.57,3.39,7.57,7.57h0v85.56h-59.39v-85.49c-.04-4.18,3.3-7.6,7.48-7.64,0,0,.01,0,.02,0h.05Z" fill="#f0f0f0"></path>
      <rect x="306.19" y="529.03" width="59.4" height="6.68" fill="#e6e6e6"></rect>
      <path d="M339.97,598.31h14.8c2.25,0,4.07,1.82,4.07,4.07h0v7.21h-23v-7.28c0-2.25,1.82-4.07,4.07-4.07h0l.06,.07Z" fill="#e0e0e0"></path>
      <path d="M358.91,609.56h-16.46c-1.46,0-2.64-1.18-2.64-2.64h0c0-1.45,1.19-2.63,2.64-2.63h16.46c1.45,0,2.63,1.18,2.64,2.63h0c0,1.46-1.18,2.64-2.64,2.64h0Z" fill="#e6e6e6"></path>
      <g>
        <circle cx="613.35" cy="96.99" r="40.44" fill="#e6e7e8"></circle>
        <path d="M613.27,137.95c-7.51,0-14.9-2.08-21.45-6.13-9.3-5.75-15.81-14.78-18.32-25.42-2.51-10.64-.73-21.63,5.02-30.93,5.75-9.3,14.78-15.81,25.42-18.32,21.98-5.19,44.06,8.47,49.25,30.44,2.51,10.64,.73,21.63-5.02,30.93-5.75,9.3-14.78,15.81-25.42,18.32-3.15,.74-6.33,1.11-9.48,1.11Zm.08-80.9c-3.03,0-6.1,.35-9.18,1.07-10.38,2.45-19.19,8.8-24.8,17.87-5.61,9.08-7.35,19.79-4.9,30.17,2.45,10.38,8.8,19.19,17.87,24.8,9.08,5.61,19.79,7.35,30.17,4.9,10.38-2.45,19.19-8.8,24.8-17.87,5.61-9.07,7.35-19.79,4.9-30.17-4.33-18.36-20.77-30.77-38.87-30.77Z" fill="#002346"></path>
      </g>
      <g>
        <circle cx="613.35" cy="96.95" r="34.39" fill="#fff"></circle>
        <path d="M613.35,131.84c-19.24,0-34.89-15.65-34.89-34.89s15.65-34.89,34.89-34.89,34.89,15.65,34.89,34.89-15.65,34.89-34.89,34.89Zm0-68.78c-18.69,0-33.89,15.2-33.89,33.89s15.2,33.89,33.89,33.89,33.89-15.2,33.89-33.89-15.2-33.89-33.89-33.89Z" fill="#002346"></path>
      </g>
      <g>
        <rect x="490.11" y="200.15" width="53.32" height="33.52" rx="2.37" ry="2.37" transform="translate(-41.06 271.02) rotate(-28.31)" fill="#e46767"></rect>
        <path d="M502.21,243.97c-1.02,0-2.01-.55-2.53-1.51l-13.65-25.34c-.75-1.39-.23-3.14,1.17-3.89h0s42.77-23.04,42.77-23.04c1.39-.75,3.14-.23,3.89,1.17l13.65,25.34c.36,.67,.44,1.45,.22,2.19s-.71,1.34-1.39,1.7l-42.77,23.04c-.43,.23-.9,.34-1.36,.34Zm-14.54-29.85c-.91,.49-1.25,1.63-.76,2.53l13.65,25.34c.24,.44,.63,.76,1.11,.9,.47,.14,.98,.09,1.42-.15l42.77-23.04c.44-.24,.76-.63,.9-1.11s.09-.98-.15-1.42l-13.65-25.34c-.49-.91-1.63-1.25-2.53-.76l-42.77,23.04Z" fill="#002346"></path>
      </g>
      <g>
        <path d="M554.48,191.31c-4.52-10.89-45-37.66-42.1-40.08,2.9-2.42,10.18,2.73,10.18,2.73,0,0-4.07-4.7,0-5s12.91,5.15,12.91,5.15c0,0-4.29-4.91,0-5.15,4.29-.24,12.45,7.69,12.45,7.69,0,0-5.67-8.16,2.94-2.27,8.61,5.89,15.68,25.14,16.14,34.69,.46,9.55-8,13.13-12.52,2.24Z" fill="#fbe493"></path>
        <path d="M561.43,198.51c-2.85,0-5.56-2.53-7.42-7.01h0c-2.45-5.9-16-16.82-26.89-25.6-10.11-8.15-15.38-12.49-15.4-14.32,0-.29,.11-.55,.33-.73,2.16-1.81,6.27,.03,8.75,1.43-.44-.86-.75-1.84-.43-2.62,.29-.71,1.01-1.12,2.14-1.2,3.01-.23,8.34,2.46,11.23,4.07-.52-.93-.9-2.03-.55-2.87,.31-.73,1.06-1.13,2.24-1.2,3.07-.16,7.7,3.35,10.5,5.73-.37-.89-.5-1.71-.06-2.16,.51-.52,1.5-.64,5.27,1.93,8.65,5.92,15.89,25.36,16.36,35.08,.23,4.79-1.82,8.64-4.98,9.35-.36,.08-.72,.12-1.08,.12Zm-6.5-7.4c1.86,4.49,4.68,6.9,7.35,6.3,2.68-.6,4.41-4.03,4.21-8.32-.46-9.52-7.5-28.54-15.92-34.3-3.28-2.24-3.95-2.07-4.01-2.04-.13,.33,.7,2.07,1.77,3.61l-.76,.64c-.08-.08-8.08-7.77-12.07-7.55-.76,.04-1.23,.24-1.37,.59-.38,.9,1,2.9,1.72,3.73l2.17,2.49-2.81-1.73c-.09-.05-8.78-5.36-12.61-5.08-.71,.05-1.15,.25-1.29,.58-.35,.84,.81,2.65,1.63,3.59l2.68,3.1-3.35-2.37c-1.94-1.37-7.44-4.54-9.57-2.75-.13,1.26,7.94,7.76,15.06,13.51,10.98,8.85,24.64,19.87,27.18,26h0Z" fill="#002346"></path>
      </g>
      <g>
        <path d="M635.99,158c-.35,0-.64-.29-.64-.64,0-.27,.17-.5,.42-.6,1.61-.67,3.26-1.24,4.93-1.72,.34-.13,.71,.04,.84,.37,.13,.34-.04,.71-.37,.84-.03,.01-.06,.02-.09,.03-1.65,.5-3.27,1.03-4.88,1.6-.07,0-.14,0-.21,0v.12Z" fill="#002346"></path>
        <path d="M729.37,296.24h0c-.34-.07-.56-.41-.49-.75,.07-.35,.4-.58,.75-.52,3.36,.62,6.77,.95,10.19,1,.36,.04,.61,.37,.56,.73-.04,.3-.27,.53-.56,.56-3.51-.05-7-.39-10.45-1.02Zm20.61,.5c-.28-.04-.5-.26-.54-.54-.06-.35,.18-.69,.53-.75,0,0,0,0,0,0,3.4-.39,6.79-.96,10.13-1.71,.34-.09,.69,.12,.78,.46,.09,.34-.12,.69-.46,.78-.02,0-.04,0-.05,.01-3.4,.78-6.84,1.35-10.3,1.72h0l-.1,.03Zm-30.38-3.43c-.11,0-.22-.04-.31-.09-3.23-1.4-6.24-3.28-8.91-5.58-.28-.24-.31-.65-.07-.93s.65-.31,.93-.07c2.57,2.22,5.46,4.03,8.58,5.38h0c.32,.15,.45,.53,.3,.85-.1,.23-.33,.38-.58,.37l.06,.07Zm50-1.6c-.11-.34,.07-.7,.4-.82,3.25-1.08,6.47-2.34,9.6-3.71,.29-.1,.62,.02,.77,.29,.18,.31,.07,.71-.24,.89,0,0,0,0,0,0-3.18,1.39-6.46,2.66-9.72,3.75h-.2c-.27,0-.51-.16-.61-.4Zm19.61-7.9c-.26,.05-.53-.06-.68-.29h0c-.17-.3-.06-.69,.24-.86,0,0,0,0,0,0,3-1.7,6-3.54,8.74-5.45,.29-.2,.69-.13,.89,.16,.21,.28,.14,.68-.14,.88,0,0,0,0-.01,0-2.79,1.94-5.77,3.79-8.85,5.51-.1,.03-.21,.03-.31,0l.11,.04Zm-84.89-3.93c-.26,.06-.54-.05-.69-.27-.55-1-1.06-2-1.53-3-.98-2.18-1.75-4.44-2.31-6.76-.09-.34,.11-.69,.45-.79,0,0,0,0,.01,0,.35-.08,.7,.13,.79,.48,.53,2.25,1.28,4.44,2.23,6.54,.45,1,.95,2,1.48,2.88h0c.17,.3,.07,.69-.24,.86,0,0,0,0,0,0-.1,.03-.21,.03-.31,0l.12,.06Zm101.83-7.93c-.21-.04-.38-.17-.47-.36-.24-.26-.24-.65,0-.91,2.57-2.26,4.97-4.7,7.2-7.3,.24-.25,.63-.25,.88-.01,0,0,0,0,.01,.01,.25,.25,.25,.66,0,.91-2.27,2.65-4.72,5.14-7.33,7.45-.12,.1-.26,.15-.41,.16l.12,.05Zm-106.9-12h0c-.36,0-.65-.29-.65-.65h0c.03-3.49,.37-6.98,1-10.41,.07-.35,.41-.59,.76-.53,.35,.07,.58,.4,.51,.75,0,0,0,0,0,0-.6,3.36-.92,6.77-.94,10.19h0c0,.35-.29,.64-.64,.64h-.04Zm3.25-20.39c-.34-.11-.53-.47-.43-.81,.89-3,2-6.25,3.31-9.85,.13-.33,.5-.5,.83-.38h0c.32,.13,.48,.5,.35,.83-1.33,3.57-2.41,6.76-3.28,9.77-.09,.27-.34,.46-.62,.46l-.16-.02Zm7-19.51c-.33-.15-.49-.54-.34-.87,0,0,0,0,0,0,1.09-2.7,2.57-5.81,4.15-9.24v-.17c.19-.31,.59-.41,.89-.22,.26,.16,.38,.48,.28,.77v.17c-1.56,3.35-3.06,6.51-4.16,9.25-.1,.22-.32,.36-.56,.36l-.26-.05Zm8.82-18.73c-.08-.03-.15-.08-.21-.14h0c-.32-.14-.47-.52-.33-.84,1.54-3.55,2.76-6.69,3.72-9.6,.11-.34,.48-.53,.82-.42,.34,.12,.51,.49,.39,.83-1,2.93-2.21,6.11-3.76,9.7-.11,.23-.34,.38-.6,.38l-.03,.09Zm6.21-19.76c-.34-.07-.57-.39-.53-.74,.28-1.78,.43-3.58,.43-5.38,.01-1.58-.13-3.15-.43-4.7-.02-.3,.16-.58,.45-.68,.34-.11,.71,.08,.82,.42h0c.31,1.65,.46,3.33,.45,5,0,1.87-.15,3.73-.45,5.57-.05,.31-.32,.54-.63,.55l-.11-.04Zm-4.41-19.42c-.22,0-.43-.12-.55-.31-2.19-2.57-4.86-4.69-7.86-6.24-.31-.17-.43-.55-.28-.87,.18-.31,.56-.42,.88-.26,3.15,1.63,5.95,3.85,8.26,6.54,.24,.26,.24,.65,0,.91-.12,.09-.26,.14-.41,.14l-.04,.09Zm-69.25-8.49c-.29,0-.55-.21-.61-.5-.08-.35,.14-.7,.49-.78,0,0,0,0,0,0,3.43-.69,6.87-1.28,10.3-1.72h0c.34-.05,.66,.2,.71,.54,0,0,0,0,0,.01h0c.05,.34-.2,.66-.54,.71,0,0,0,0-.01,0-3.45,.45-6.87,1-10.16,1.72h-.19v.02Zm51.46-1.48c-3.33-.75-6.72-1.24-10.13-1.46h0c-.35-.03-.61-.34-.58-.69,.03-.35,.34-.62,.69-.6,3.47,.24,6.91,.74,10.3,1.5,.35,.03,.6,.34,.57,.68,0,0,0,.01,0,.02-.04,.35-.36,.61-.71,.57l-.14-.02Zm-30.9-1.1c-.32-.07-.53-.37-.5-.69h0c-.02-.34,.24-.64,.58-.66,0,0,.01,0,.02,0,2.92-.21,6.51-.42,10.3-.5h0c.35,0,.63,.28,.63,.63h0c0,.36-.27,.65-.63,.66-3.76,.07-7.32,.29-10.3,.49h0l-.1,.07Z" fill="#002346"></path>
        <path d="M819.38,256.05c-.13,0-.27-.04-.38-.11-.28-.19-.36-.57-.17-.85,0,0,0,0,0-.01,.83-1.47,1.58-2.98,2.24-4.53,.15-.32,.52-.47,.85-.34h0c.32,.14,.47,.52,.33,.84-.68,1.6-1.45,3.16-2.32,4.67-.11,.21-.33,.34-.57,.33h.01Z" fill="#002346"></path>
      </g>
      <g>
        <polygon points="240.8 279.2 258.95 469.25 268.12 469.24 249.14 278.77 240.8 279.2" fill="#f1f2f2"></polygon>
        <path d="M258.49,469.75l-.04-.45-18.19-190.57,9.34-.48,.05,.47,19.03,191.02h-10.18Zm-17.14-190.06l18.05,189.08h8.16s-18.87-189.45-18.87-189.45l-7.34,.38Z" fill="#002346"></path>
      </g>
      <g>
        <polygon points="266.35 279.19 278.43 466.76 285.94 466.76 275.51 278.77 266.35 279.19" fill="#f1f2f2"></polygon>
        <path d="M286.46,467.26h-8.51l-.03-.47-12.11-188.08,10.16-.47,10.49,189.01Zm-7.57-1h6.51l-10.37-186.97-8.16,.37,12.02,186.59Z" fill="#002346"></path>
      </g>
      <g>
        <polygon points="265.1 643.91 255.92 643.91 255.92 482.6 269.68 482.6 265.1 643.91" fill="#f1f2f2"></polygon>
        <path d="M265.58,644.41h-10.17v-162.31h14.77l-4.61,162.31Zm-9.17-1h8.19l4.55-160.31h-12.75v160.31Z" fill="#002346"></path>
      </g>
      <g>
        <polygon points="317.2 643.07 308.03 643.07 304.28 482.6 318.03 482.6 317.2 643.07" fill="#f1f2f2"></polygon>
        <path d="M317.69,643.57h-10.16v-.49s-3.77-160.98-3.77-160.98h14.76v.5s-.84,160.97-.84,160.97Zm-9.18-1h8.18l.82-159.47h-12.74l3.73,159.47Z" fill="#002346"></path>
      </g>
      <g>
        <polygon points="330.95 643.49 340.12 643.49 343.87 483.01 330.12 483.01 330.95 643.49" fill="#f1f2f2"></polygon>
        <path d="M340.6,643.99h-10.16v-.5s-.84-160.98-.84-160.98h14.76v.51s-3.77,160.97-3.77,160.97Zm-9.16-1h8.18l3.73-159.48h-12.74l.82,159.48Z" fill="#002346"></path>
      </g>
      <g>
        <polygon points="397.56 643.49 406.73 643.49 410.15 484.27 396.39 484.27 397.56 643.49" fill="#f1f2f2"></polygon>
        <path d="M407.21,643.99h-10.16v-.5s-1.18-159.72-1.18-159.72h14.77v.51s-3.44,159.71-3.44,159.71Zm-9.16-1h8.18l3.4-158.22h-12.75l1.16,158.22Z" fill="#002346"></path>
      </g>
      <g>
        <rect x="254.26" y="463.42" width="72.94" height="21.67" fill="#e6e7e8"></rect>
        <path d="M327.69,485.59h-73.94v-22.67h73.94v22.67Zm-72.94-1h71.94v-20.67h-71.94v20.67Z" fill="#002346"></path>
      </g>
      <g>
        <rect x="327.2" y="463.42" width="85.45" height="21.67" fill="#e6e7e8"></rect>
        <path d="M413.15,485.59h-86.45v-22.67h86.45v22.67Zm-85.45-1h84.45v-20.67h-84.45v20.67Z" fill="#002346"></path>
      </g>
      <g>
        <polygon points="336.79 609.31 336.79 626.4 356.38 626.4 356.38 607.23 336.79 609.31" fill="#f2b3c1"></polygon>
        <path d="M356.88,626.9h-20.59v-18.04l20.59-2.19v20.23Zm-19.59-1h18.59v-18.11l-18.59,1.97v16.14Z" fill="#002346"></path>
      </g>
      <g>
        <path d="M335.95,641.55v-16.4l20.48-.26,22.89,12.08c1.29,.68,2.09,2.02,2.09,3.47h0c0,2.15-1.74,3.9-3.89,3.92l-38.35,.35c-1.74,.03-3.19-1.35-3.22-3.1,0-.02,0-.04,0-.06Z" fill="#e46767"></path>
        <path d="M339.1,645.21c-1.98,0-3.62-1.6-3.65-3.59v-16.96s21.1-.27,21.1-.27l23,12.14c1.45,.77,2.36,2.27,2.36,3.91,0,2.41-1.97,4.4-4.38,4.42l-38.35,.35s-.05,0-.07,0Zm-3.16-3.66l.5,.04c.03,1.48,1.29,2.66,2.71,2.62l38.35-.35c1.87-.02,3.39-1.55,3.39-3.42,0-1.27-.7-2.43-1.82-3.03l-22.78-12.02-19.86,.25v15.91h-.5Z" fill="#002346"></path>
      </g>
      <g>
        <polygon points="426.82 608.9 426.82 625.98 446.41 625.98 446.41 606.81 426.82 608.9" fill="#f2b3c1"></polygon>
        <path d="M446.9,626.48h-20.59v-18.03l20.59-2.2v20.23Zm-19.59-1h18.59v-18.11l-18.59,1.98v16.13Z" fill="#002346"></path>
      </g>
      <g>
        <path d="M425.99,641.13v-16.4l20.48-.26,22.85,12.08c1.29,.68,2.09,2.02,2.09,3.47h0c0,2.15-1.74,3.9-3.89,3.92l-38.35,.36c-1.75,0-3.17-1.41-3.18-3.16,0,0,0,0,0,0Z" fill="#e46767"></path>
        <path d="M429.16,644.8c-2.02,0-3.67-1.64-3.67-3.66v-16.9l21.1-.27,22.96,12.14c1.46,.77,2.36,2.27,2.36,3.91,0,2.42-1.97,4.4-4.39,4.42l-38.35,.36h-.01Zm-2.67-19.58v15.92c0,1.47,1.2,2.66,2.67,2.66h0l38.35-.36c1.87-.01,3.39-1.55,3.39-3.42,0-1.27-.7-2.43-1.82-3.03l-22.74-12.02-19.86,.25Z" fill="#002346"></path>
      </g>
      <g>
        <polygon points="315.53 643.91 321.78 643.91 288.44 393.81 281.77 393.81 300.28 530.95 221.98 530.95 240.5 393.81 233.83 393.81 200.49 643.91 206.74 643.91 221.08 537.62 301.18 537.62 315.53 643.91" fill="#e6e7e8"></polygon>
        <path d="M322.35,644.41h-7.26l-.06-.43-14.29-105.86h-79.22l-14.35,106.29h-7.26l.08-.57,33.4-250.53h7.68l-.08,.57-18.43,136.57h77.15l-18.51-137.14h7.68l.06,.43,33.42,250.67Zm-6.38-1h5.24l-33.21-249.1h-5.66l18.51,137.14h-79.44l.08-.57,18.43-136.57h-5.66l-33.21,249.1h5.24l14.35-106.29h80.97l.06,.43,14.29,105.86Z" fill="#002346"></path>
      </g>
      <g>
        <polygon points="642.73 643.91 648.99 643.91 615.64 393.81 608.97 393.81 627.48 530.95 549.19 530.95 567.71 393.81 561.04 393.81 527.69 643.91 533.94 643.91 548.29 537.62 628.38 537.62 642.73 643.91" fill="#e6e7e8"></polygon>
        <path d="M649.56,644.41h-7.27l-.06-.43-14.29-105.86h-79.22l-14.35,106.29h-7.26l.08-.57,33.41-250.53h7.68l-.08,.57-18.44,136.57h77.14l-18.51-137.14h7.68l.06,.43,33.42,250.67Zm-6.39-1h5.25l-33.22-249.1h-5.66l18.51,137.14h-79.43l.08-.57,18.44-136.57h-5.66l-33.22,249.1h5.24l14.35-106.29h80.97l.06,.43,14.29,105.86Z" fill="#002346"></path>
      </g>
      <g>
        <polygon points="348.46 256.27 349.29 281.69 237.58 284.19 236.33 259.6 348.46 256.27" fill="#e6e7e8"></polygon>
        <path d="M237.1,284.7l-1.3-25.59,113.14-3.36,.86,26.42-112.7,2.52Zm-.25-24.62l1.2,23.59,110.72-2.48-.8-24.42-111.12,3.3Z" fill="#002346"></path>
      </g>
      <g>
        <path d="M220.08,385.48h424.74c3.68,0,6.67,2.99,6.67,6.67h0c0,3.68-2.99,6.67-6.67,6.67H220.08c-3.68,0-6.67-2.99-6.67-6.67h0c0-3.68,2.99-6.67,6.67-6.67Z" fill="#f1f2f2"></path>
        <path d="M644.82,399.32H220.07c-3.95,0-7.17-3.22-7.17-7.17s3.22-7.17,7.17-7.17h424.74c3.95,0,7.17,3.22,7.17,7.17s-3.22,7.17-7.17,7.17Zm-424.74-13.34c-3.4,0-6.17,2.77-6.17,6.17s2.77,6.17,6.17,6.17h424.74c3.4,0,6.17-2.77,6.17-6.17s-2.77-6.17-6.17-6.17H220.07Z" fill="#002346"></path>
      </g>
      <g>
        <path d="M325.12,617.23h52.52l8.75-115s.42-16.67-.83-24.59c0,0,21.67,14.17,26.67,16.67l-1.53,114.41s35.3,8.13,51.55,3.13l5.84-124.63s4.16-31.26-20-51.27l-44-36.94-114.14-.39s-12,45.67,12.63,71.93l24.55,24.46c1.95,1.94,2.99,4.61,2.87,7.36l-4.88,114.86Z" fill="#fbe493"></path>
        <path d="M378.1,617.73h-53.51l.02-.52,4.88-114.86c.12-2.6-.88-5.15-2.72-6.99l-24.55-24.46c-24.55-26.17-12.88-71.95-12.76-72.41l.1-.37,114.71,.39,.14,.12,44,36.94c24.09,19.95,20.22,51.4,20.17,51.72l-5.85,124.94-.34,.1c-16.19,4.98-50.36-2.79-51.81-3.12l-.39-.09v-.4s1.53-114.1,1.53-114.1c-4.84-2.52-21.36-13.25-25.52-15.95,1.05,8.22,.68,23.42,.68,23.58l-8.79,115.49Zm-52.46-1h51.54l8.71-114.54c0-.14,.4-16.69-.83-24.47l-.18-1.11,.94,.62c.22,.14,21.7,14.18,26.62,16.64l.28,.14v.31s-1.53,114-1.53,114c3.89,.86,35.41,7.57,50.56,3.15l5.82-124.28c.04-.35,3.84-31.27-19.82-50.86l-43.86-36.83-113.57-.39c-1.06,4.42-10.38,46.58,12.6,71.09l24.54,24.45c2.04,2.04,3.14,4.86,3.02,7.74l-4.86,114.34Z" fill="#002346"></path>
      </g>
      <g>
        <path d="M355.75,262.44l-46.43,10.33s-21.67,.42-28.34,23.76l-7.8,51.48,21.55,16.88,19.33,20.81h123.26l-6.7-81.25s-6.26-22.63-49.4-32.36l-25.47-9.65Z" fill="#e46767"></path>
        <path d="M437.86,386.2h-124.02l-19.48-20.97-21.72-17.01,7.84-51.77c6.71-23.49,28.6-24.18,28.82-24.19l46.48-10.35,25.61,9.7c42.87,9.66,49.64,32.47,49.7,32.69l6.76,81.88Zm-123.58-1h122.5l-6.66-80.71c-.05-.13-6.72-22.37-49.01-31.91l-25.4-9.62-46.28,10.3c-.31,.02-21.48,.71-27.97,23.41l-7.74,51.13,21.32,16.7,19.24,20.7Z" fill="#002346"></path>
      </g>
      <path d="M404.7,385.95s-.03,0-.04,0c-.28-.02-.48-.27-.45-.54l6.7-75.42c.02-.28,.28-.48,.54-.45,.28,.02,.48,.27,.45,.54l-6.7,75.42c-.02,.26-.24,.46-.5,.46Z" fill="#002346"></path>
      <g>
        <rect x="416.82" y="264.6" width="140.05" height="96.29" rx="10.48" ry="10.48" fill="#f1f2f2"></rect>
        <path d="M546.39,361.39h-119.09c-6.05,0-10.98-4.93-10.98-10.98v-75.33c0-6.05,4.93-10.98,10.98-10.98h119.09c6.05,0,10.98,4.93,10.98,10.98v75.33c0,6.05-4.93,10.98-10.98,10.98Zm-119.09-96.29c-5.5,0-9.98,4.48-9.98,9.98v75.33c0,5.5,4.48,9.98,9.98,9.98h119.09c5.5,0,9.98-4.48,9.98-9.98v-75.33c0-5.5-4.48-9.98-9.98-9.98h-119.09Z" fill="#002346"></path>
      </g>
      <g>
        <path d="M494.51,245.58c-.04,.43-.23,.84-.54,1.15-.3,.31-.7,.51-1.13,.58l-13.08,1.87s4.17,.83,4.17,3.33c0,0-.11,2.69-1.67,3.34,.98,1.72,.82,3.87-.42,5.42,0,0,1.07,2.68-.5,3.42l-29.51-.09s10-18.76,26.26-20.84l14-.35h.44c1.1,0,1.99,.91,1.99,2.01,0,.05,0,.1,0,.16Z" fill="#f2b3c1"></path>
        <path d="M481.45,265.19l-30.45-.09,.39-.73c.1-.19,10.31-19.01,26.64-21.1l14.5-.35c1.38,0,2.5,1.14,2.49,2.52,0,.06,0,.13,0,.19h0c-.05,.56-.3,1.07-.68,1.46-.38,.39-.88,.64-1.41,.72l-11.01,1.57c1.22,.57,2.53,1.56,2.53,3.13,0,.13-.12,2.52-1.51,3.54,.79,1.74,.6,3.75-.52,5.31,.41,1.2,.61,3.1-.85,3.79l-.1,.05Zm-28.76-1.09l28.53,.09c.97-.6,.17-2.71,.16-2.73l-.11-.27,.18-.23c1.12-1.4,1.26-3.31,.38-4.86l-.28-.49,.52-.22c1.23-.51,1.36-2.87,1.36-2.9,0-2.01-3.73-2.81-3.77-2.82l-2.87-.57,15.98-2.28c.32-.05,.62-.2,.84-.43,.22-.23,.37-.53,.4-.84v-.12c0-.83-.66-1.51-1.49-1.51h-.44l-13.99,.35c-13.95,1.79-23.36,16.38-25.41,19.84Z" fill="#002346"></path>
      </g>
      <path d="M466.32,265.19c-.26,0-.49-.21-.5-.48-.01-.28,.2-.51,.47-.52,6.17-.31,7.67-1.61,7.68-1.62l6.26-6.24c.19-.19,.51-.2,.71,0,.19,.2,.19,.51,0,.71l-6.27,6.25c-.16,.16-1.75,1.57-8.33,1.91,0,0-.02,0-.03,0Z" fill="#002346"></path>
      <g>
        <path d="M383.06,256.68v17.3c0,7.48-6.07,13.55-13.55,13.55s-13.55-6.07-13.55-13.55v-26.47l4.4-1.85,22.7,11.02Z" fill="#f2b3c1"></path>
        <path d="M369.51,288.03c-7.75,0-14.05-6.3-14.05-14.05v-26.8l4.91-2.07,23.19,11.26v17.61c0,7.75-6.3,14.05-14.05,14.05Zm-13.05-40.19v26.14c0,7.2,5.85,13.05,13.05,13.05s13.05-5.85,13.05-13.05v-16.99l-22.21-10.78-3.88,1.63Z" fill="#002346"></path>
      </g>
      <g>
        <ellipse cx="393.06" cy="229.8" rx="7.5" ry="10.63" fill="#e46767"></ellipse>
        <path d="M393.06,240.93c-4.41,0-8-4.99-8-11.13s3.59-11.13,8-11.13,8,4.99,8,11.13-3.59,11.13-8,11.13Zm0-21.26c-3.86,0-7,4.54-7,10.13s3.14,10.13,7,10.13,7-4.54,7-10.13-3.14-10.13-7-10.13Z" fill="#002346"></path>
      </g>
      <g>
        <ellipse cx="392.23" cy="230.63" rx="5.42" ry="7.68" fill="#f1f2f2"></ellipse>
        <path d="M392.23,238.81c-3.26,0-5.92-3.67-5.92-8.18s2.66-8.18,5.92-8.18,5.92,3.67,5.92,8.18-2.66,8.18-5.92,8.18Zm0-15.36c-2.71,0-4.92,3.22-4.92,7.18s2.21,7.18,4.92,7.18,4.92-3.22,4.92-7.18-2.21-7.18-4.92-7.18Z" fill="#002346"></path>
      </g>
      <g>
        <path d="M366.23,208.54h0c10.03-3.74,21.19,1.35,24.93,11.38l5.98,16.01c3.74,10.03-1.35,21.19-11.38,24.93h0c-10.03,3.74-21.19-1.35-24.93-11.38l-5.98-16.01c-3.74-10.03,1.35-21.19,11.38-24.93Z" fill="#f2b3c1"></path>
        <path d="M379.01,262.59c-8.06,0-15.66-4.94-18.65-12.93l-5.98-16.01c-3.83-10.27,1.4-21.74,11.67-25.58,10.27-3.84,21.74,1.4,25.58,11.67l5.98,16.01c3.83,10.27-1.4,21.74-11.67,25.58-2.28,.85-4.63,1.26-6.93,1.26Zm-5.99-54.78c-2.23,0-4.46,.4-6.61,1.2-4.72,1.76-8.48,5.26-10.57,9.85s-2.28,9.72-.51,14.44l5.98,16.01c1.76,4.72,5.26,8.48,9.85,10.57,4.59,2.09,9.72,2.27,14.44,.51,4.72-1.76,8.48-5.26,10.57-9.85s2.28-9.72,.51-14.44l-5.98-16.01c-1.76-4.72-5.26-8.48-9.85-10.57-2.5-1.14-5.16-1.71-7.83-1.71Z" fill="#002346"></path>
      </g>
      <g>
        <path d="M346.69,241.91s-10.58-12.88-3-30.88c.63-1.55,1.73-2.88,3.14-3.79,1.86-1.3,4.32-1.36,6.25-.16,0,0,0-.23,.09-.61,1.13-6.4,7.23-10.66,13.63-9.53,.07,.01,.15,.03,.22,.04,5.38,.97,10.88,1.08,16.3,.33,.91-.12,1.81-.31,2.69-.56,3.13-.86,13.41-2.65,14.11,11.12,0,0,2.45,7.25-8.57,12.59l-1.67-3.54c-.89-1.54-2.02-2.92-3.35-4.1,0,0-11.41,9.64-25.59,7.14l-1.6,5-12.65,16.95Z" fill="#002346"></path>
        <path d="M346.7,242.72l-.41-.49c-.11-.13-10.68-13.32-3.07-31.39,.67-1.65,1.83-3.04,3.33-4.02,1.81-1.26,4.16-1.44,6.13-.52,.57-3.17,2.36-5.96,5.03-7.83,2.68-1.88,5.94-2.6,9.16-2.03l.23,.04c5.33,.96,10.76,1.07,16.13,.33,.88-.12,1.76-.3,2.62-.55,1.89-.52,6.67-1.44,10.29,1.17,2.7,1.95,4.2,5.43,4.46,10.35,.23,.82,1.83,7.95-8.85,13.12l-.45,.22-1.89-4c-.78-1.34-1.76-2.58-2.92-3.66-2.01,1.55-12.54,9.08-25.22,7.05l-1.54,4.73-13.03,17.46Zm3.37-36c-1.04,0-2.07,.31-2.96,.93-1.34,.87-2.36,2.1-2.96,3.57-6.53,15.51,.73,27.29,2.54,29.85l12.2-16.34,1.71-5.34,.43,.08c13.78,2.43,25.07-6.94,25.18-7.03l.33-.28,.32,.29c1.37,1.22,2.54,2.64,3.45,4.22l1.47,3.12c9.94-5.04,7.95-11.48,7.86-11.76l-.02-.13c-.24-4.63-1.6-7.88-4.05-9.65-3.26-2.36-7.68-1.49-9.43-1.01-.9,.26-1.83,.45-2.76,.57-5.48,.76-11.01,.65-16.46-.33l-.22-.04c-2.96-.52-5.95,.14-8.41,1.86-2.46,1.72-4.11,4.3-4.63,7.27-.08,.34-.08,.53-.08,.53v.89s-.76-.46-.76-.46c-.84-.52-1.79-.78-2.74-.78Z" fill="#002346"></path>
      </g>
      <g>
        <path d="M355.32,238.31h6c-.58,1.08-1.71,3.59-1.49,6.89,.16,2.37,.95,4.18,1.49,5.2h-6c-3.31,0-6-2.69-6-6-.05-3.31,2.6-6.04,5.91-6.09,.03,0,.06,0,.09,0Z" fill="#f2b3c1"></path>
        <path d="M362.15,250.9h-6.83c-3.58,0-6.5-2.92-6.5-6.5-.05-3.58,2.82-6.54,6.4-6.59h6.93s-.39,.73-.39,.73c-.76,1.43-1.63,3.75-1.44,6.62,.12,1.75,.6,3.43,1.44,5l.39,.74Zm-6.83-12.59l-.08,.5c-1.47,.02-2.84,.61-3.87,1.67-1.02,1.05-1.57,2.44-1.55,3.91,0,3.04,2.47,5.51,5.5,5.51h5.19c-.68-1.48-1.08-3.05-1.19-4.67-.17-2.66,.48-4.87,1.19-6.42h-5.2v-.5Z" fill="#002346"></path>
      </g>
      <g>
        <path d="M353.88,226.25s-2.55-21,13.1-29.27l3.55,.61s-12,12.12-9.12,28.31l-7.53,.35Z" fill="#e46767"></path>
        <path d="M353.44,226.77l-.06-.46c-.03-.21-2.41-21.44,13.36-29.77l.15-.08,4.66,.8-.67,.68c-.12,.12-11.78,12.13-8.98,27.87l.1,.56-8.56,.4Zm13.62-29.27c-13.74,7.39-12.98,25.14-12.73,28.23l6.49-.3c-2.18-13.81,6.3-24.71,8.72-27.5l-2.48-.43Z" fill="#002346"></path>
      </g>
      <g>
        <ellipse cx="358.05" cy="236.47" rx="8.34" ry="11.88" fill="#f1f2f2"></ellipse>
        <path d="M358.05,248.85c-4.87,0-8.84-5.55-8.84-12.38s3.97-12.38,8.84-12.38,8.84,5.55,8.84,12.38-3.97,12.38-8.84,12.38Zm0-23.76c-4.32,0-7.84,5.1-7.84,11.38s3.52,11.38,7.84,11.38,7.84-5.1,7.84-11.38-3.52-11.38-7.84-11.38Z" fill="#002346"></path>
      </g>
      <g>
        <ellipse cx="353.88" cy="236.47" rx="8.34" ry="10.21" fill="#e46767"></ellipse>
        <path d="M353.88,247.18c-4.88,0-8.84-4.8-8.84-10.71s3.97-10.71,8.84-10.71,8.84,4.8,8.84,10.71-3.97,10.71-8.84,10.71Zm0-20.42c-4.32,0-7.84,4.36-7.84,9.71s3.52,9.71,7.84,9.71,7.84-4.36,7.84-9.71-3.52-9.71-7.84-9.71Z" fill="#002346"></path>
      </g>
      <g>
        <ellipse cx="301.98" cy="358.39" rx="31.05" ry="30.84" fill="#e46767"></ellipse>
        <path d="M301.98,389.73c-17.4,0-31.55-14.06-31.55-31.34s14.15-31.34,31.55-31.34,31.55,14.06,31.55,31.34-14.15,31.34-31.55,31.34Zm0-61.68c-16.85,0-30.55,13.61-30.55,30.34s13.7,30.34,30.55,30.34,30.55-13.61,30.55-30.34-13.7-30.34-30.55-30.34Z" fill="#002346"></path>
      </g>
      <g>
        <rect x="424.32" y="264.6" width="140.05" height="96.29" rx="13.87" ry="13.87" fill="#fbe493"></rect>
        <path d="M550.49,361.39h-112.31c-7.92,0-14.37-6.45-14.37-14.37v-68.55c0-7.92,6.45-14.37,14.37-14.37h112.31c7.92,0,14.37,6.45,14.37,14.37v68.55c0,7.92-6.45,14.37-14.37,14.37Zm-112.31-96.29c-7.37,0-13.37,6-13.37,13.37v68.55c0,7.37,6,13.37,13.37,13.37h112.31c7.37,0,13.37-6,13.37-13.37v-68.55c0-7.37-6-13.37-13.37-13.37h-112.31Z" fill="#002346"></path>
      </g>
      <g>
        <rect x="517.27" y="274.19" width="7.09" height="21.26" rx="3.54" ry="3.54" fill="#e46767"></rect>
        <path d="M520.82,295.95c-2.24,0-4.05-1.81-4.05-4.04v-14.18c0-2.23,1.81-4.04,4.04-4.04h0c2.23,0,4.04,1.81,4.04,4.04v14.18c0,2.23-1.81,4.04-4.04,4.04Zm0-21.26c-1.68,0-3.04,1.36-3.04,3.04v14.18c0,1.68,1.36,3.04,3.04,3.04s3.05-1.36,3.05-3.04v-14.18c0-1.68-1.36-3.04-3.04-3.04h0Z" fill="#002346"></path>
      </g>
      <g>
        <rect x="528.11" y="274.19" width="7.09" height="21.26" rx="3.54" ry="3.54" fill="#e46767"></rect>
        <path d="M531.65,295.95c-2.24,0-4.05-1.81-4.05-4.04v-14.18c0-2.23,1.81-4.04,4.04-4.04h0c2.23,0,4.04,1.81,4.04,4.04v14.18c0,2.23-1.81,4.04-4.04,4.04Zm0-21.26c-1.68,0-3.04,1.36-3.04,3.04v14.18c0,1.68,1.36,3.04,3.04,3.04s3.05-1.36,3.05-3.04v-14.18c0-1.68-1.36-3.04-3.04-3.04h0Z" fill="#002346"></path>
      </g>
      <g>
        <rect x="539.36" y="274.19" width="7.09" height="21.26" rx="3.54" ry="3.54" fill="#e46767"></rect>
        <path d="M542.9,295.95c-2.24,0-4.05-1.81-4.05-4.04v-14.18c0-2.23,1.81-4.04,4.04-4.04h0c2.23,0,4.04,1.81,4.04,4.04v14.18c0,2.23-1.81,4.04-4.04,4.04Zm0-21.26c-1.68,0-3.04,1.36-3.04,3.04v14.18c0,1.68,1.36,3.04,3.04,3.04s3.05-1.36,3.05-3.04v-14.18c0-1.68-1.36-3.04-3.04-3.04h0Z" fill="#002346"></path>
      </g>
      <g>
        <path d="M479.32,312.54l15.84,68.35h-48.32c-1.39,0-2.51,1.11-2.52,2.5,0,0,0,.01,0,.02h0c0,1.39,1.12,2.51,2.51,2.51h70.49c3.37,.01,6.11-2.71,6.13-6.07,0-.42-.04-.84-.13-1.26l-13.5-65.64-30.5-.41Z" fill="#e46767"></path>
        <path d="M517.34,386.42h-70.52c-1.66,0-3.01-1.35-3.01-3.01,0-1.68,1.36-3.02,3.01-3.02h47.7l-15.84-68.36,31.54,.42,13.58,66.03c.09,.45,.14,.9,.13,1.36,0,1.76-.7,3.42-1.95,4.66-1.25,1.23-2.89,1.91-4.65,1.91Zm-70.51-5.03c-1.11,0-2.01,.9-2.01,2,0,1.13,.9,2.03,2.01,2.03h70.51c1.49,0,2.89-.58,3.94-1.62,1.06-1.05,1.65-2.46,1.66-3.95,0-.39-.04-.77-.11-1.15l-13.42-65.25-29.46-.4,15.84,68.34h-48.96Z" fill="#002346"></path>
      </g>
      <g>
        <path d="M479.33,313.01l-.34,47.71,11.38,.34-10.93-48.07c-.01-.06-.11-.05-.11,.01Z" fill="#f1f2f2"></path>
        <path d="M491.01,361.59l-12.52-.37,.35-48.65,.93-.15,.16,.47,11.08,48.7Zm-11.51-1.34l10.25,.31-9.94-43.7-.31,43.39Z" fill="#002346"></path>
      </g>
      <g>
        <path d="M325.54,167.8h-34.91c-2.8,0-5.07,2.27-5.07,5.07v14.93c0,2.8,2.27,5.07,5.07,5.07h23.88l14.55,11.44-8.42-11.44h4.9c2.8,0,5.07-2.27,5.07-5.07v-14.93c0-2.8-2.27-5.07-5.07-5.07Z" fill="#e46767"></path>
        <path d="M331.64,206.97l-17.31-13.61h-23.7c-3.07,0-5.57-2.5-5.57-5.57v-14.93c0-3.07,2.5-5.57,5.57-5.57h34.91c3.07,0,5.57,2.5,5.57,5.57v14.93c0,3.07-2.5,5.57-5.57,5.57h-3.91l10.01,13.61Zm-41.01-38.68c-2.52,0-4.57,2.05-4.57,4.57v14.93c0,2.52,2.05,4.57,4.57,4.57h24.05l11.8,9.27-6.82-9.27h5.88c2.52,0,4.57-2.05,4.57-4.57v-14.93c0-2.52-2.05-4.57-4.57-4.57h-34.91Z" fill="#002346"></path>
      </g>
      <g>
        <g>
          <path d="M321.42,180.3c0-1.08,.87-1.95,1.95-1.95h0c1.08,0,1.96,.89,1.95,1.97,0,1.08-.89,1.96-1.97,1.95s-1.96-.89-1.95-1.97h.03Z" fill="#f1f2f2"></path>
          <path d="M323.36,182.78h-.02c-1.36,0-2.45-1.12-2.45-2.48v-.5h.08c.23-1.11,1.22-1.95,2.4-1.95,.66,0,1.28,.26,1.74,.73,.46,.47,.71,1.09,.71,1.75,0,.66-.26,1.27-.73,1.74-.46,.46-1.08,.71-1.73,.71Zm-1.44-2.18c.13,.67,.72,1.18,1.42,1.18h.01c.39,0,.75-.15,1.03-.42,.28-.27,.43-.64,.43-1.03,0-.39-.15-.76-.42-1.04-.27-.28-.64-.43-1.03-.44-.8,0-1.45,.65-1.45,1.45v.29Z" fill="#002346"></path>
        </g>
        <g>
          <path d="M311.23,180.3c0-1.08,.87-1.95,1.95-1.95h0c1.08,0,1.96,.89,1.95,1.97,0,1.08-.89,1.96-1.97,1.95-1.08,0-1.96-.89-1.95-1.97h.03Z" fill="#f1f2f2"></path>
          <path d="M313.17,182.78h-.02c-1.36,0-2.45-1.12-2.45-2.48v-.5h.08c.23-1.11,1.22-1.95,2.4-1.95,.66,0,1.28,.26,1.74,.73,.46,.47,.71,1.09,.71,1.75,0,.66-.26,1.27-.73,1.74-.46,.46-1.08,.71-1.73,.71Zm-1.44-2.18c.13,.67,.72,1.18,1.42,1.18,.37-.02,.76-.15,1.04-.42,.28-.27,.43-.64,.43-1.03,0-.39-.15-.76-.42-1.04-.27-.28-.64-.43-1.03-.44-.8,0-1.45,.65-1.45,1.45v.29Z" fill="#002346"></path>
        </g>
        <g>
          <path d="M301.04,180.3c0-1.08,.87-1.95,1.95-1.95h0c1.08,0,1.96,.89,1.95,1.97s-.89,1.96-1.97,1.95c-1.08,0-1.96-.89-1.95-1.97h.03Z" fill="#f1f2f2"></path>
          <path d="M302.97,182.78h-.02c-1.36,0-2.45-1.12-2.45-2.48v-.5h.08c.23-1.11,1.22-1.95,2.4-1.95,.66,0,1.28,.26,1.74,.73,.46,.47,.71,1.09,.71,1.75,0,.66-.26,1.27-.73,1.74-.46,.46-1.08,.71-1.73,.71Zm-1.44-2.18c.13,.67,.72,1.18,1.42,1.18,.4-.02,.76-.15,1.04-.42,.28-.27,.43-.64,.43-1.03,0-.39-.15-.76-.42-1.04-.27-.28-.64-.43-1.03-.44-.8,0-1.45,.65-1.45,1.45v.29Z" fill="#002346"></path>
        </g>
        <g>
          <path d="M290.85,180.3c0-1.08,.87-1.95,1.95-1.95h0c1.08,0,1.96,.89,1.95,1.97s-.89,1.96-1.97,1.95c-1.08,0-1.96-.89-1.95-1.97h.03Z" fill="#f1f2f2"></path>
          <path d="M292.78,182.78h-.02c-1.36,0-2.45-1.12-2.45-2.48v-.5h.08c.23-1.11,1.22-1.95,2.4-1.95,.66,0,1.28,.26,1.74,.73,.46,.47,.71,1.09,.71,1.75,0,.66-.26,1.27-.73,1.74-.46,.46-1.08,.71-1.73,.71Zm-1.44-2.18c.13,.67,.72,1.18,1.42,1.18,.34-.02,.76-.15,1.04-.42,.28-.27,.43-.64,.43-1.03,0-.39-.15-.76-.42-1.04-.27-.28-.64-.43-1.03-.44-.8,0-1.45,.65-1.45,1.45v.29Z" fill="#002346"></path>
        </g>
      </g>
      <path d="M316.44,331.29s-.02,0-.03,0c-.28-.02-.49-.25-.47-.53l2-35.76c.02-.27,.24-.48,.53-.47,.28,.02,.49,.25,.47,.53l-2,35.76c-.01,.27-.24,.47-.5,.47Z" fill="#002346"></path>
      <path d="M385.56,478.1s0,0-.01,0c-.28,0-.49-.24-.49-.51,0-.14,.26-14.38-10.35-31.83l-22.51-37.1c-.14-.24-.07-.54,.17-.69,.24-.14,.54-.07,.69,.17l22.51,37.1c10.77,17.72,10.5,32.23,10.49,32.37,0,.27-.23,.49-.5,.49Z" fill="#002346"></path>
      <path d="M470.82,253.7c-.08,0-.15-.02-.22-.05-.25-.12-.35-.42-.22-.67,2.11-4.23,9.09-4.3,9.38-4.3h0c.28,0,.5,.22,.5,.5s-.22,.5-.5,.5c-.07,0-6.65,.07-8.49,3.74-.09,.18-.26,.28-.45,.28Z" fill="#002346"></path>
      <path d="M521.3,223.52s-.04,0-.06,0l-33.28-4.24c-.27-.04-.47-.29-.43-.56,.04-.27,.29-.46,.56-.43l32.91,4.19,13.07-29c.12-.25,.41-.36,.66-.25,.25,.11,.36,.41,.25,.66l-13.22,29.34c-.08,.18-.26,.29-.46,.29Z" fill="#002346"></path>
      <g>
        <path d="M536.37,192.51l-3.28,3.68c-.11,.12-.27,.18-.43,.16-.26-.04-.45-.28-.42-.54l.48-4.36-5.68,.44c-.17,.02-.33-.06-.42-.21-.13-.21-.06-.48,.14-.61,0,0,0,0,0,0l5.41-3.43,4.19,4.87Z" fill="#f1f2f2"></path>
        <path d="M532.71,196.85s-.08,0-.12,0c-.54-.08-.92-.55-.86-1.09l.41-3.76-5.08,.39c-.35,.04-.71-.14-.89-.46-.13-.2-.17-.46-.11-.7,.06-.24,.21-.45,.42-.58l5.78-3.66,4.76,5.53-3.57,4.01c-.19,.21-.46,.33-.74,.33Zm.56-5.95l-.55,4.96,2.97-3.36-3.62-4.21-4.86,3.08,6.06-.47Zm-6.24,.58h0s0,0,0,0h0Z" fill="#002346"></path>
      </g>
      <g>
        <path d="M591.85,182.86c3.93,13.74-4.35,29.38-19.92,29.19-15.57-.19-22.43-15.12-31-17.17-8.57-2.05-10.87-6.42-8.83-10.63,2.04-4.21,7.54-4.2,18.79-.56,9.48,3.05,21.44,3.29,26.34,.56,8.88-4.94,12.09-19.94,12.09-19.94,11.31-3.33,18.8,1.82,18.8,1.82-6.92,3.9-12.56,9.71-16.27,16.73Z" fill="#fbe493"></path>
        <path d="M572.2,212.55c-.09,0-.19,0-.28,0-9.69-.12-15.94-5.72-21.46-10.66-3.45-3.09-6.43-5.75-9.65-6.52-4.87-1.16-8.1-3.17-9.35-5.8-.81-1.71-.75-3.62,.18-5.54,2.14-4.41,7.58-4.64,19.39-.82,9.28,2.99,21.16,3.26,25.94,.6,8.58-4.77,11.81-19.46,11.84-19.61l.06-.29,.29-.08c11.41-3.36,18.91,1.67,19.22,1.89l.66,.45-.7,.39c-6.79,3.83-12.31,9.48-15.98,16.35,2.08,7.5,.59,15.79-3.9,21.67-3.93,5.14-9.7,7.96-16.28,7.96Zm-33.84-31.04c-3.05,0-4.86,.98-5.81,2.96-.79,1.63-.85,3.25-.18,4.67,1.11,2.35,4.11,4.16,8.67,5.25,3.47,.83,6.53,3.57,10.08,6.75,5.39,4.82,11.5,10.29,20.81,10.4,.09,0,.18,0,.27,0,6.26,0,11.75-2.68,15.49-7.57,4.34-5.69,5.75-13.73,3.68-20.98l-.06-.19,.09-.18c3.62-6.87,9.05-12.55,15.72-16.5-2.08-1.11-8.54-3.92-17.38-1.42-.51,2.2-3.88,15.31-12.27,19.98-5.07,2.82-17.06,2.59-26.74-.52-5.47-1.77-9.48-2.66-12.37-2.66Z" fill="#002346"></path>
      </g>
      <path d="M537.14,186.31h0c.43,.05,.74,.44,.69,.86-.04,.36-.33,.65-.69,.69-.43-.05-.74-.44-.69-.86,.04-.36,.33-.65,.69-.69Z" fill="#002346"></path>
      <g>
        <path d="M577.32,187.14c11.73-1,49.66-31.24,51.12-27.68,1.46,3.56-5.73,8.84-5.73,8.84,0,0,5.77-2.4,4.74,1.55-1.03,3.95-8.93,10.66-8.93,10.66,0,0,6.06-2.54,4.94,1.61-1.12,4.15-11.14,9.47-11.14,9.47,0,0,9.48-2.92,1.24,3.43-8.24,6.35-28.75,7.14-38,4.64s-9.99-11.58,1.76-12.52Z" fill="#fbe493"></path>
        <path d="M587.87,201.46c-4.83,0-9.28-.47-12.45-1.32-4.7-1.27-7.65-4.31-7.35-7.56,.23-2.54,2.77-5.43,9.2-5.94,6.31-.54,20.76-9.97,32.37-17.55,10.71-6.99,16.85-10.92,18.65-10.36,.29,.09,.5,.28,.61,.54,1.09,2.65-1.93,5.98-4.04,7.89,.96-.15,1.99-.13,2.62,.41,.58,.5,.73,1.31,.44,2.4-.76,2.92-4.98,7.16-7.4,9.4,1.07-.21,2.27-.24,2.97,.38,.59,.52,.74,1.36,.44,2.49-.79,2.92-5.54,6.26-8.65,8.19,.94-.08,1.75,.05,2.03,.59,.33,.64,.14,1.61-3.46,4.38-5.5,4.23-16.47,6.05-25.99,6.05Zm39.89-41.86c-1.77,0-10.14,5.47-17.57,10.32-12.32,8.04-26.28,17.15-32.83,17.71h0c-5.81,.46-8.09,2.91-8.28,5.04-.25,2.71,2.47,5.38,6.62,6.5,9.22,2.49,29.5,1.66,37.56-4.55,3.12-2.41,3.18-3.09,3.17-3.16-.27-.2-2.18,.06-3.96,.61l-.38-.92c.1-.05,9.84-5.27,10.89-9.16,.2-.73,.15-1.23-.13-1.48-.75-.65-3.11,.03-4.14,.46l-2.98,1.25,2.46-2.09c.08-.07,7.79-6.65,8.77-10.4,.18-.69,.13-1.16-.13-1.39-.71-.61-2.95,.02-3.93,.43l-3.82,1.58,3.33-2.45c1.91-1.41,6.64-5.63,5.56-8.25-.05-.03-.12-.04-.21-.04Z" fill="#002346"></path>
      </g>
      <path d="M614.98,97.92c-.09,0-.18-.02-.26-.07-.15-.09-.24-.25-.24-.43l.14-25.69c0-.28,.22-.5,.5-.5h0c.28,0,.5,.23,.5,.5l-.13,24.86,16.41-8.73c.24-.13,.55-.04,.68,.21,.13,.24,.04,.55-.21,.68l-17.15,9.13c-.07,.04-.15,.06-.23,.06Z" fill="#002346"></path>
    </g>
    <g>
      <path d="M365.91,375.29h58.43c4.3,0,7.79,3.49,7.79,7.79v2.21h-74v-2.21c0-4.3,3.49-7.79,7.79-7.79Z" fill="#f1f2f2"></path>
      <path d="M432.63,385.79h-75v-2.71c0-4.57,3.72-8.29,8.29-8.29h58.43c4.57,0,8.29,3.72,8.29,8.29v2.71Zm-74-1h73v-1.71c0-4.02-3.27-7.29-7.29-7.29h-58.43c-4.02,0-7.29,3.27-7.29,7.29v1.71Z" fill="#002346"></path>
    </g>
    <g>
      <g>
        <path d="M362.2,361.94s-71.69,39.19-80,2.5c0,0-7.09-28.34,24.17-28.34,0,0,23.76-.42,58.36,6.67l35.41,7.31c3.23,.67,6.12,2.44,8.19,5l15.49,19c.61,.76,.5,1.86-.26,2.48-.08,.06-.16,.12-.24,.16h0c-.66,.38-1.5,.29-2.06-.23l-17.38-15.79,3.11,8.29c.64,1.66,.48,3.53-.45,5.05-1,1.56-2.87,2.92-6.41,2.09,0,0-2.5,2.5-6.67,0,0,0-3.51,2.1-12.15,2.45-.55,.09-1.06-.29-1.14-.83-.06-.37,.1-.75,.4-.97,1.6-1.52,4.12-3.41,6.64-3.16l-2.5-5.83s-16.68,2.49-22.51-5.85Z" fill="#f2b3c1"></path>
        <path d="M305.21,380.64c-4.71,0-9.07-.7-12.78-2.37-5.63-2.54-9.23-7.16-10.72-13.73-.12-.49-2.99-12.35,3.63-20.83,4.21-5.39,11.28-8.12,21.03-8.12,.24,0,24.2-.34,58.46,6.68l35.41,7.31c3.33,.69,6.34,2.53,8.48,5.18l15.49,19c.38,.47,.56,1.06,.49,1.66-.06,.6-.36,1.14-.82,1.52-.1,.08-.2,.15-.31,.21-.85,.49-1.92,.37-2.65-.3l-15.85-14.4,2.38,6.35c.69,1.79,.51,3.84-.49,5.49-.98,1.54-2.94,3.17-6.71,2.37-.73,.56-3.21,2.06-6.81,.03-.98,.49-4.66,2.08-12.12,2.38-.77,.12-1.53-.44-1.66-1.25-.09-.56,.14-1.12,.61-1.45,1.51-1.44,3.79-3.13,6.17-3.27l-2.05-4.77c-2.57,.33-16.65,1.73-22.35-5.75-4.03,2.17-34.38,18.06-56.84,18.06Zm1.82-44.05c-.41,0-.63,0-.65,0-9.43,0-16.24,2.6-20.25,7.74-6.32,8.1-3.48,19.86-3.45,19.98,1.42,6.26,4.83,10.64,10.16,13.05,21.71,9.79,68.64-15.61,69.12-15.86l.39-.21,.26,.37c5.58,7.99,21.86,5.67,22.03,5.64l.38-.06,2.99,6.96-.84-.08c-2.28-.23-4.66,1.52-6.25,3.03-.21,.15-.29,.34-.25,.53,.04,.27,.3,.46,.57,.42,8.43-.35,11.94-2.37,11.97-2.39l.26-.15,.26,.15c3.79,2.27,6.04,.1,6.06,.08l.2-.2,.27,.06c2.7,.63,4.67,0,5.87-1.87,.83-1.37,.99-3.09,.41-4.6l-3.84-10.23,18.91,17.18c.41,.37,1,.44,1.47,.17,.06-.04,.12-.07,.17-.12,.26-.21,.43-.51,.46-.85s-.06-.66-.27-.92l-15.49-19c-1.99-2.47-4.8-4.18-7.9-4.83l-35.41-7.31c-31.01-6.36-53.56-6.66-57.6-6.66Z" fill="#002346"></path>
      </g>
      <path d="M403.88,361.19c-.22,0-.43-.15-.49-.38-1.55-6.18-10.23-5.46-10.31-5.45-.28,.02-.52-.18-.54-.45-.03-.27,.18-.52,.45-.54,.1,0,9.62-.8,11.37,6.21,.07,.27-.1,.54-.36,.61-.04,.01-.08,.02-.12,.02Z" fill="#002346"></path>
      <path d="M400.13,376.59c-.26,0-.48-.2-.5-.46l-.84-10c-.24-2.9-2.01-5.47-4.64-6.72l-5.08-2.43c-.25-.12-.35-.42-.24-.67,.12-.25,.42-.35,.67-.24l5.08,2.43c2.95,1.4,4.94,4.29,5.2,7.54l.84,10c.02,.28-.18,.52-.46,.54-.01,0-.03,0-.04,0Z" fill="#002346"></path>
      <path d="M393.46,376.62c-.27,0-.49-.21-.5-.48l-.32-6.62c-.08-2.02-1.02-3.89-2.58-5.15l-4-3.29c-.21-.18-.24-.49-.07-.7,.18-.21,.49-.24,.7-.07l4,3.29c1.79,1.44,2.86,3.59,2.95,5.89l.32,6.62c.01,.28-.2,.51-.47,.52,0,0-.02,0-.02,0Z" fill="#002346"></path>
    </g>
  </g>
</svg>
