<svg width="1170" height="481" viewBox="0 0 1170 481" fill="none" xmlns="http://www.w3.org/2000/svg"><g><line x1="1431.59" y1="317.959" x2="-224.322" y2="317.959" stroke="#C9D9E6"></line><line x1="1431.59" y1="344.667" x2="-224.322" y2="344.667" stroke="#C9D9E6"></line><line x1="1431.59" y1="371.375" x2="-224.322" y2="371.375" stroke="#C9D9E6"></line><line x1="1431.59" y1="398.084" x2="-224.322" y2="398.084" stroke="#C9D9E6"></line><line x1="1431.59" y1="424.792" x2="-224.322" y2="424.792" stroke="#C9D9E6"></line><line x1="1431.59" y1="451.5" x2="-224.322" y2="451.5" stroke="#C9D9E6"></line><line x1="1431.59" y1="478.209" x2="-224.322" y2="478.209" stroke="#C9D9E6"></line><line x1="16.5526" y1="290.75" x2="16.5526" y2="1092" stroke="#C9D9E6"></line><line x1="43.2607" y1="290.75" x2="43.2607" y2="1092" stroke="#C9D9E6"></line><line x1="69.9692" y1="290.75" x2="69.9692" y2="1092" stroke="#C9D9E6"></line><line x1="96.6775" y1="290.75" x2="96.6775" y2="1092" stroke="#C9D9E6"></line><line x1="123.386" y1="290.75" x2="123.386" y2="1092" stroke="#C9D9E6"></line><line x1="150.094" y1="290.75" x2="150.094" y2="1092" stroke="#C9D9E6"></line><line x1="176.802" y1="290.75" x2="176.802" y2="1092" stroke="#C9D9E6"></line><line x1="203.511" y1="290.75" x2="203.511" y2="1092" stroke="#C9D9E6"></line><line x1="230.219" y1="290.75" x2="230.219" y2="1092" stroke="#C9D9E6"></line><line x1="256.927" y1="290.75" x2="256.927" y2="1092" stroke="#C9D9E6"></line><line x1="283.636" y1="290.75" x2="283.636" y2="1092" stroke="#C9D9E6"></line><line x1="310.344" y1="290.75" x2="310.344" y2="1092" stroke="#C9D9E6"></line><line x1="337.052" y1="290.75" x2="337.052" y2="1092" stroke="#C9D9E6"></line><line x1="363.761" y1="290.75" x2="363.761" y2="1092" stroke="#C9D9E6"></line><line x1="390.469" y1="290.75" x2="390.469" y2="1092" stroke="#C9D9E6"></line><line x1="417.177" y1="290.75" x2="417.177" y2="1092" stroke="#C9D9E6"></line><line x1="443.886" y1="290.75" x2="443.886" y2="1092" stroke="#C9D9E6"></line><line x1="470.594" y1="290.75" x2="470.594" y2="1092" stroke="#C9D9E6"></line><line x1="497.302" y1="290.75" x2="497.302" y2="1092" stroke="#C9D9E6"></line><line x1="524.01" y1="290.75" x2="524.01" y2="1092" stroke="#C9D9E6"></line><line x1="550.719" y1="290.75" x2="550.719" y2="1092" stroke="#C9D9E6"></line><line x1="577.427" y1="290.75" x2="577.427" y2="1092" stroke="#C9D9E6"></line><line x1="604.136" y1="290.75" x2="604.136" y2="1092" stroke="#C9D9E6"></line><line x1="630.844" y1="290.75" x2="630.844" y2="1092" stroke="#C9D9E6"></line><line x1="657.552" y1="290.75" x2="657.552" y2="1092" stroke="#C9D9E6"></line><line x1="684.26" y1="290.75" x2="684.26" y2="1092" stroke="#C9D9E6"></line><line x1="710.969" y1="290.75" x2="710.969" y2="1092" stroke="#C9D9E6"></line><line x1="737.677" y1="290.75" x2="737.677" y2="1092" stroke="#C9D9E6"></line><line x1="764.385" y1="290.75" x2="764.385" y2="1092" stroke="#C9D9E6"></line><line x1="791.094" y1="290.75" x2="791.094" y2="1092" stroke="#C9D9E6"></line><line x1="817.802" y1="290.75" x2="817.802" y2="1092" stroke="#C9D9E6"></line><line x1="844.51" y1="290.75" x2="844.51" y2="1092" stroke="#C9D9E6"></line><line x1="871.219" y1="290.75" x2="871.219" y2="1092" stroke="#C9D9E6"></line><line x1="897.927" y1="290.75" x2="897.927" y2="1092" stroke="#C9D9E6"></line><line x1="924.635" y1="290.75" x2="924.635" y2="1092" stroke="#C9D9E6"></line><line x1="951.344" y1="290.75" x2="951.344" y2="1092" stroke="#C9D9E6"></line><line x1="978.052" y1="290.75" x2="978.052" y2="1092" stroke="#C9D9E6"></line><line x1="1004.76" y1="290.75" x2="1004.76" y2="1092" stroke="#C9D9E6"></line><line x1="1031.47" y1="290.75" x2="1031.47" y2="1092" stroke="#C9D9E6"></line><line x1="1058.18" y1="290.75" x2="1058.18" y2="1092" stroke="#C9D9E6"></line><line x1="1084.89" y1="290.75" x2="1084.89" y2="1092" stroke="#C9D9E6"></line><line x1="1111.59" y1="290.75" x2="1111.59" y2="1092" stroke="#C9D9E6"></line><line x1="1138.3" y1="290.75" x2="1138.3" y2="1092" stroke="#C9D9E6"></line><line x1="1165.01" y1="290.75" x2="1165.01" y2="1092" stroke="#C9D9E6"></line><line x1="1431.59" y1="24.167" x2="-224.322" y2="24.167" stroke="#C9D9E6"></line><line x1="1431.59" y1="50.876" x2="-224.322" y2="50.876" stroke="#C9D9E6"></line><line x1="1431.59" y1="77.584" x2="-224.322" y2="77.584" stroke="#C9D9E6"></line><line x1="1431.59" y1="104.292" x2="-224.322" y2="104.292" stroke="#C9D9E6"></line><line x1="1431.59" y1="131.001" x2="-224.322" y2="131.001" stroke="#C9D9E6"></line><line x1="1431.59" y1="157.709" x2="-224.322" y2="157.709" stroke="#C9D9E6"></line><line x1="1431.59" y1="184.417" x2="-224.322" y2="184.417" stroke="#C9D9E6"></line><line x1="1431.59" y1="211.126" x2="-224.322" y2="211.126" stroke="#C9D9E6"></line><line x1="1431.59" y1="237.834" x2="-224.322" y2="237.834" stroke="#C9D9E6"></line><line x1="1431.59" y1="264.542" x2="-224.322" y2="264.542" stroke="#C9D9E6"></line><line x1="1431.59" y1="291.25" x2="-224.322" y2="291.25" stroke="#C9D9E6"></line><line x1="16.5526" y1="-483.791" x2="16.5526" y2="317.458" stroke="#C9D9E6"></line><line x1="43.2607" y1="-483.791" x2="43.2607" y2="317.458" stroke="#C9D9E6"></line><line x1="69.9692" y1="-483.791" x2="69.9692" y2="317.458" stroke="#C9D9E6"></line><line x1="96.6775" y1="-483.791" x2="96.6775" y2="317.458" stroke="#C9D9E6"></line><line x1="123.386" y1="-483.791" x2="123.386" y2="317.458" stroke="#C9D9E6"></line><line x1="150.094" y1="-483.791" x2="150.094" y2="317.458" stroke="#C9D9E6"></line><line x1="176.802" y1="-483.791" x2="176.802" y2="317.458" stroke="#C9D9E6"></line><line x1="203.511" y1="-483.791" x2="203.511" y2="317.458" stroke="#C9D9E6"></line><line x1="230.219" y1="-483.791" x2="230.219" y2="317.458" stroke="#C9D9E6"></line><line x1="256.927" y1="-483.791" x2="256.927" y2="317.458" stroke="#C9D9E6"></line><line x1="283.636" y1="-483.791" x2="283.636" y2="317.458" stroke="#C9D9E6"></line><line x1="310.344" y1="-483.791" x2="310.344" y2="317.458" stroke="#C9D9E6"></line><line x1="337.052" y1="-483.791" x2="337.052" y2="317.458" stroke="#C9D9E6"></line><line x1="363.761" y1="-483.791" x2="363.761" y2="317.458" stroke="#C9D9E6"></line><line x1="390.469" y1="-483.791" x2="390.469" y2="317.458" stroke="#C9D9E6"></line><line x1="417.177" y1="-483.791" x2="417.177" y2="317.458" stroke="#C9D9E6"></line><line x1="443.886" y1="-483.791" x2="443.886" y2="317.458" stroke="#C9D9E6"></line><line x1="470.594" y1="-483.791" x2="470.594" y2="317.458" stroke="#C9D9E6"></line><line x1="497.302" y1="-483.791" x2="497.302" y2="317.458" stroke="#C9D9E6"></line><line x1="524.01" y1="-483.791" x2="524.01" y2="317.458" stroke="#C9D9E6"></line><line x1="550.719" y1="-483.791" x2="550.719" y2="317.458" stroke="#C9D9E6"></line><line x1="577.427" y1="-483.791" x2="577.427" y2="317.458" stroke="#C9D9E6"></line><line x1="604.136" y1="-483.791" x2="604.136" y2="317.458" stroke="#C9D9E6"></line><line x1="630.844" y1="-483.791" x2="630.844" y2="317.458" stroke="#C9D9E6"></line><line x1="657.552" y1="-483.791" x2="657.552" y2="317.458" stroke="#C9D9E6"></line><line x1="684.26" y1="-483.791" x2="684.26" y2="317.458" stroke="#C9D9E6"></line><line x1="710.969" y1="-483.791" x2="710.969" y2="317.458" stroke="#C9D9E6"></line><line x1="737.677" y1="-483.791" x2="737.677" y2="317.458" stroke="#C9D9E6"></line><line x1="764.385" y1="-483.791" x2="764.385" y2="317.458" stroke="#C9D9E6"></line><line x1="791.094" y1="-483.791" x2="791.094" y2="317.458" stroke="#C9D9E6"></line><line x1="817.802" y1="-483.791" x2="817.802" y2="317.458" stroke="#C9D9E6"></line><line x1="844.51" y1="-483.791" x2="844.51" y2="317.458" stroke="#C9D9E6"></line><line x1="871.219" y1="-483.791" x2="871.219" y2="317.458" stroke="#C9D9E6"></line><line x1="897.927" y1="-483.791" x2="897.927" y2="317.458" stroke="#C9D9E6"></line><line x1="924.635" y1="-483.791" x2="924.635" y2="317.458" stroke="#C9D9E6"></line><line x1="951.344" y1="-483.791" x2="951.344" y2="317.458" stroke="#C9D9E6"></line><line x1="978.052" y1="-483.791" x2="978.052" y2="317.458" stroke="#C9D9E6"></line><line x1="1004.76" y1="-483.791" x2="1004.76" y2="317.458" stroke="#C9D9E6"></line><line x1="1031.47" y1="-483.791" x2="1031.47" y2="317.458" stroke="#C9D9E6"></line><line x1="1058.18" y1="-483.791" x2="1058.18" y2="317.458" stroke="#C9D9E6"></line><line x1="1084.89" y1="-483.791" x2="1084.89" y2="317.458" stroke="#C9D9E6"></line><line x1="1111.59" y1="-483.791" x2="1111.59" y2="317.458" stroke="#C9D9E6"></line><line x1="1138.3" y1="-483.791" x2="1138.3" y2="317.458" stroke="#C9D9E6"></line><line x1="1165.01" y1="-483.791" x2="1165.01" y2="317.458" stroke="#C9D9E6"></line></g></svg>