<svg width="16" height="16" viewBox="0 0 16 16" fill="none" xmlns="http://www.w3.org/2000/svg">
<path fill-rule="evenodd" clip-rule="evenodd" d="M7.99935 0.666748C3.94935 0.666748 0.666016 3.95008 0.666016 8.00008C0.666016 12.0501 3.94935 15.3334 7.99935 15.3334C12.0493 15.3334 15.3327 12.0501 15.3327 8.00008C15.3327 3.95008 12.0493 0.666748 7.99935 0.666748ZM11.178 6.76008C11.2365 6.69318 11.2811 6.61524 11.3091 6.53086C11.337 6.44648 11.3478 6.35736 11.3409 6.26874C11.3339 6.18012 11.3092 6.09379 11.2684 6.01483C11.2276 5.93588 11.1713 5.86588 11.103 5.80898C11.0348 5.75207 10.9558 5.70939 10.8707 5.68346C10.7857 5.65752 10.6964 5.64886 10.6079 5.65797C10.5195 5.66708 10.4338 5.69378 10.3558 5.7365C10.2779 5.77923 10.2093 5.83711 10.154 5.90675L7.28735 9.34608L5.80402 7.86208C5.67828 7.74064 5.50988 7.67345 5.33508 7.67496C5.16028 7.67648 4.99307 7.7466 4.86947 7.8702C4.74586 7.99381 4.67575 8.16102 4.67423 8.33581C4.67271 8.51061 4.73991 8.67901 4.86135 8.80475L6.86135 10.8047C6.92685 10.8702 7.00528 10.9213 7.09163 10.9548C7.17797 10.9883 7.27035 11.0034 7.36286 10.9992C7.45538 10.995 7.546 10.9715 7.62896 10.9304C7.71191 10.8892 7.78538 10.8312 7.84468 10.7601L11.178 6.76008Z" fill="#276EF1"/>
</svg>
